<svg xmlns="http://www.w3.org/2000/svg" id="Layer_1" viewBox="0 0 1515.1 52" width="1515.1" height="52"><style>.st0{fill:none;stroke:#000;stroke-width:2;stroke-linecap:round;stroke-miterlimit:10}</style><path d="M16.1 10.6L-.1-5.6m0 16.2L16.1-5.6m181.8 21.8L181.7 0m0 16.2L197.9 0m475.4 60.1l-16.2-16.2m0 16.2l16.2-16.2M439.7 8.1L423.5-8.1m0 16.2l16.2-16.2" class="st0"/><circle cx="4.9" cy="47.6" r="5.8" class="st0"/><circle cx="80.9" cy="8.1" r="5.8" class="st0"/><circle cx="337.6" cy="35.9" r="5.8" class="st0"/><circle cx="331.8" cy="-3.4" r="5.8" class="st0"/><circle cx="601.6" cy="8.3" r="5.8" class="st0"/><path d="M37.8-3.4v63.5M48.6-3.4v63.5M59.5-3.4v63.5M222-1.6l4.1 63.3M234-2.4l4.1 63.3M284-5.7l4.2 63.4m19.7-63.4l4.2 63.4M463.2-3.4l4.3 17.6 51 31.7 45-49.3h-33.6L511.5 19 480.7-3.4zM511.5 19l7.1 26.9-7.1-26.9zM93.6 55V27.1l9.2-22.9 65.1 25.1L189.8 55l-19.6 1.8-8-11.6-39.2-9.3-7.1 4v14.2z" class="st0"/><path d="M167.9 29.3l-5.7 15.9 8 11.6-21.8-14.9-37.8-9.7 5.3 7.7 7.1-4-29.4-8.8v14.2l10.2 13.3m250-58L369.4 16l17-22.3h-8zM369.4 16l9-22.3m153.3 60.9L576.9 16l44.9 33.6-6.3 9zm53.5-32.4l-35.8 33.2M630.8 26l36.2-7.3-22.6-24.5zm53.5-29.4l47.3 40.7 6.9-44.9zm11.4-.8l35.9 41.5M720.3-6.2l11.3 43.5" class="st0"/><circle cx="141.7" cy="1.3" r="2.6"/><circle cx="199.6" cy="42" r="2.6"/><circle cx="328.5" cy="19.8" r="2.6"/><circle cx="360" cy="30.5" r="2.6"/><circle cx="387.7" cy="20.9" r="2.6"/><circle cx="403.5" cy="2.5" r="2.6"/><circle cx="637.9" cy="41.8" r="2.6"/><circle cx="691.4" cy="23.4" r="2.6"/><path d="M362.6 54.2l62.9-32.9 41 14.6-6.1 20.6zm25.1.6l37.5-18.9m.3-14.6l-.3 14.6m41.3 0h-41.3M447 56.5l19.5-20.6m-41.3 0l11.7 20m16.6-6.3l-28.3-13.7m41.3 0l-9.7 20.5m315.4-45.8L756-5.6m0 16.2l16.2-16.2M944 16.2L927.8 0m0 16.2L944 0m475.3 60.1l-16.2-16.2m0 16.2l16.2-16.2M1185.7 8.1l-16.2-16.2m0 16.2l16.2-16.2" class="st0"/><circle cx="751" cy="47.6" r="5.8" class="st0"/><circle cx="827" cy="8.1" r="5.8" class="st0"/><circle cx="1083.7" cy="35.9" r="5.8" class="st0"/><circle cx="1077.8" cy="-3.4" r="5.8" class="st0"/><circle cx="1347.6" cy="8.3" r="5.8" class="st0"/><circle cx="1515.1" r="5.8" class="st0"/><path d="M783.8-3.4v63.5m10.9-63.5v63.5m10.9-63.5v63.5M968-1.6l4.2 63.3M980-2.4l4.2 63.3m45.9-66.6l4.1 63.4M1054-5.7l4.1 63.4m151.2-61.1l4.3 17.6 51 31.7 44.9-49.3H1276L1257.5 19l-30.7-22.4zm48.2 22.4l7.1 26.9-7.1-26.9zM839.7 55V27.1l9.2-22.9 65 25.1 22 25.7-19.6 1.8-8-11.6-39.2-9.3-7.2 4v14.2z" class="st0"/><path d="M913.9 29.3l-5.6 15.9 8 11.6-21.9-14.9-37.8-9.7 5.3 7.7 7.2-4-29.4-8.8v14.2l10.2 13.3m249.9-58l15.7 19.4 16.9-22.3h-8zm15.7 19.4l8.9-22.3m153.4 60.9L1323 16l44.9 33.6-6.3 9zm53.5-32.4l-35.9 33.2m81.5-29.4l36.2-7.3-22.6-24.5zm53.5-29.4l47.2 40.7 7-44.9zm11.3-.8l35.9 41.5m-11.3-43.5l11.3 43.5" class="st0"/><circle cx="887.8" cy="1.3" r="2.6"/><circle cx="945.7" cy="42" r="2.6"/><circle cx="1074.6" cy="19.8" r="2.6"/><circle cx="1106.1" cy="30.5" r="2.6"/><circle cx="1133.8" cy="20.9" r="2.6"/><circle cx="1149.5" cy="2.5" r="2.6"/><circle cx="1384" cy="41.8" r="2.6"/><circle cx="1437.5" cy="23.4" r="2.6"/><circle cx="1498.7" cy="23.4" r="2.6"/><circle cx="1490.3" cy="52" r="2.6"/><path d="M1108.7 54.2l62.9-32.9 41 14.6-6.1 20.6zm25.1.6l37.5-18.9m.3-14.6l-.3 14.6m41.3 0h-41.3m21.8 20.6l19.5-20.6m-41.3 0l11.6 20m16.6-6.3l-28.2-13.7m41.3 0l-9.8 20.5" class="st0"/></svg>